<svg id="Layer_1" data-name="Layer 1" xmlns="http://www.w3.org/2000/svg" xmlns:xlink="http://www.w3.org/1999/xlink" viewBox="0 0 371.97 314.15"><defs><linearGradient id="linear-gradient" x1="70.24" y1="175.31" x2="293.37" y2="175.31" gradientUnits="userSpaceOnUse"><stop offset="0.01"/><stop offset="0.13" stop-opacity="0.69"/><stop offset="1" stop-opacity="0"/></linearGradient><linearGradient id="linear-gradient-2" x1="100.99" y1="175.75" x2="300.57" y2="175.75" xlink:href="#linear-gradient"/><linearGradient id="linear-gradient-3" x1="316.52" y1="18.25" x2="116.86" y2="280.96" xlink:href="#linear-gradient"/><linearGradient id="linear-gradient-4" x1="216.65" y1="-27.92" x2="199.83" y2="207.47" xlink:href="#linear-gradient"/><linearGradient id="linear-gradient-5" x1="157.67" y1="100.44" x2="157.01" y2="143.27" xlink:href="#linear-gradient"/><linearGradient id="linear-gradient-6" x1="216.22" y1="46.64" x2="183.11" y2="318.55" gradientUnits="userSpaceOnUse"><stop offset="0.01" stop-color="#fff"/><stop offset="0.13" stop-color="#fff" stop-opacity="0.69"/><stop offset="1" stop-color="#68e1fd" stop-opacity="0"/></linearGradient><linearGradient id="linear-gradient-7" x1="134.94" y1="169.69" x2="149.25" y2="169.69" xlink:href="#linear-gradient"/><linearGradient id="linear-gradient-8" x1="155.28" y1="167.94" x2="169.63" y2="167.94" xlink:href="#linear-gradient"/><linearGradient id="linear-gradient-9" x1="156.99" y1="180.33" x2="170.03" y2="180.33" xlink:href="#linear-gradient"/><linearGradient id="linear-gradient-10" x1="175.43" y1="170.74" x2="188.66" y2="170.74" xlink:href="#linear-gradient"/><linearGradient id="linear-gradient-11" x1="181" y1="186.85" x2="194.17" y2="186.85" xlink:href="#linear-gradient"/><linearGradient id="linear-gradient-12" x1="198.3" y1="186.71" x2="213.42" y2="186.71" xlink:href="#linear-gradient"/><linearGradient id="linear-gradient-13" x1="191.82" y1="169.64" x2="201.45" y2="169.64" xlink:href="#linear-gradient"/><linearGradient id="linear-gradient-14" x1="194.51" y1="169.41" x2="199.06" y2="169.41" xlink:href="#linear-gradient"/><linearGradient id="linear-gradient-15" x1="222.79" y1="187.3" x2="232.15" y2="187.3" xlink:href="#linear-gradient"/><linearGradient id="linear-gradient-16" x1="225.53" y1="187.43" x2="229.7" y2="187.43" xlink:href="#linear-gradient"/><linearGradient id="linear-gradient-17" x1="234.87" y1="178.79" x2="254.22" y2="178.79" xlink:href="#linear-gradient"/><linearGradient id="linear-gradient-18" x1="215.75" y1="165.48" x2="234.68" y2="165.48" xlink:href="#linear-gradient"/><linearGradient id="linear-gradient-19" x1="253.52" y1="165.6" x2="274.11" y2="165.6" xlink:href="#linear-gradient"/><linearGradient id="linear-gradient-20" x1="241.79" y1="150.74" x2="257.28" y2="150.74" xlink:href="#linear-gradient"/><linearGradient id="linear-gradient-21" x1="216.57" y1="143.87" x2="230.16" y2="143.87" xlink:href="#linear-gradient"/><linearGradient id="linear-gradient-22" x1="231.1" y1="137.65" x2="241.07" y2="137.65" xlink:href="#linear-gradient"/><linearGradient id="linear-gradient-23" x1="204.02" y1="133.66" x2="215.65" y2="133.66" xlink:href="#linear-gradient"/><linearGradient id="linear-gradient-24" x1="195.12" y1="144.55" x2="209.28" y2="144.55" xlink:href="#linear-gradient"/><linearGradient id="linear-gradient-25" x1="195.03" y1="167.22" x2="199.59" y2="167.22" xlink:href="#linear-gradient"/><linearGradient id="linear-gradient-26" x1="158.6" y1="115.74" x2="154.39" y2="167.06" xlink:href="#linear-gradient-6"/><linearGradient id="linear-gradient-27" x1="149.75" y1="72.63" x2="150.8" y2="136.03" xlink:href="#linear-gradient-6"/><linearGradient id="linear-gradient-28" x1="97.91" y1="104.25" x2="180.25" y2="104.25" xlink:href="#linear-gradient"/><linearGradient id="linear-gradient-29" x1="122.26" y1="58.59" x2="131.51" y2="98.35" xlink:href="#linear-gradient"/><linearGradient id="linear-gradient-30" x1="160.82" y1="245.27" x2="184.99" y2="188.87" xlink:href="#linear-gradient"/><linearGradient id="linear-gradient-31" x1="147.15" y1="94.51" x2="159.94" y2="94.51" xlink:href="#linear-gradient"/><linearGradient id="linear-gradient-32" x1="163.38" y1="105.5" x2="174.8" y2="105.5" xlink:href="#linear-gradient"/><linearGradient id="linear-gradient-33" x1="141.42" y1="93.45" x2="148.2" y2="93.45" gradientTransform="translate(67.68 -67.92) rotate(35.44)" xlink:href="#linear-gradient"/><linearGradient id="linear-gradient-34" x1="151.62" y1="88.41" x2="154.62" y2="88.41" gradientTransform="translate(67.68 -67.92) rotate(35.44)" xlink:href="#linear-gradient"/><linearGradient id="linear-gradient-35" x1="155.72" y1="92.23" x2="160.91" y2="92.23" gradientTransform="translate(67.68 -67.92) rotate(35.44)" xlink:href="#linear-gradient"/><linearGradient id="linear-gradient-36" x1="161.63" y1="71.54" x2="166.81" y2="71.54" gradientTransform="translate(67.68 -67.92) rotate(35.44)" xlink:href="#linear-gradient"/><linearGradient id="linear-gradient-37" x1="131.81" y1="38.32" x2="136.71" y2="92.26" xlink:href="#linear-gradient"/><linearGradient id="linear-gradient-38" x1="128.26" y1="144.43" x2="140.77" y2="144.43" xlink:href="#linear-gradient-6"/><linearGradient id="linear-gradient-39" x1="146.42" y1="109.69" x2="153.95" y2="95.86" gradientUnits="userSpaceOnUse"><stop offset="0.01" stop-color="#fff"/><stop offset="0.13" stop-color="#fff" stop-opacity="0.69"/><stop offset="0.71" stop-color="#68e1fd" stop-opacity="0"/></linearGradient></defs><title>Cleaning PC</title><path d="M380.39,196c-6.57,12.39-18.47,22.06-21.77,35.7-1.43,5.88-1.1,12.06-1.8,18.08-2.58,21.09-18.4,38.67-37.25,48.63-.79.43-1.59.83-2.39,1.22-12.37,6.05-25.77,9.34-39.44,11.4-8.31,1.24-16.71,2-25.05,2.7a1040.77,1040.77,0,0,1-104.21,3c-16.8-.34-33.94-1.14-49.75-6.72-.81-.28-1.61-.58-2.41-.9C83.49,304.13,72.11,296,62,286.61l-.46-.43a148.18,148.18,0,0,1-35.5-50,130.4,130.4,0,0,1-5.71-85.54c4.75-16.84,13-32.9,14.37-50.3,1-13.12-2.12-26.39-.06-39.38C38.74,35.2,62.7,16.22,88,9.84s51.94-2.75,77.78.89c12.64,1.8,27.41,6.62,39.91,2.76C221,8.74,234,2.86,250.52,2.83c6.76,0,13.66.71,19.86,3.42,7.51,3.28,13.47,9.23,19.55,14.7,17,15.27,36.43,27.61,53.83,42.43s33.16,32.86,39.53,54.8c3.13,10.73,3.9,22,4.24,33.17C388,166.6,387.52,182.55,380.39,196Z" transform="translate(-15.69 -2.83)" fill="#ff4500" opacity="0.18" style="isolation:isolate"/><ellipse cx="181.8" cy="175.31" rx="111.57" ry="56.5" fill="#ff4500"/><ellipse cx="181.8" cy="175.31" rx="111.57" ry="56.5" fill="url(#linear-gradient)"/><ellipse cx="181.8" cy="167.5" rx="111.57" ry="56.5" fill="#ff4500"/><path d="M141.74,132.77c-1.18.28-2.51,1.29-2.1,2.43.24.7,1,1,1.69,1.29A127.75,127.75,0,0,1,161,146c4.21,2.5,8.61,5.72,9.62,10.5-7.79,3.8-17,1.65-25.66,2.07-7.4.36-14.54,2.66-21.77,4.26s-14.93,2.47-21.92.05a127,127,0,0,0-.09,15.11c.26,4.84,1,10.08,4.47,13.44a21.15,21.15,0,0,0,6.32,3.73l12.4,5.47c11,4.86,22.1,9.75,33.78,12.72,11.51,2.93,23.41,4,35.25,5l15.17,1.29a8,8,0,0,0,3.51-.22c1.61-.62,2.84-2.27,4.57-2.3,3.25,0,7-.84,10.3-.94,12.53-.35,25.36-.77,37.05-5.31,11.32-4.4,20.83-12.38,30.1-20.22,3.38-2.85,7.1-6.56,6.39-10.93-.57-3.5-4-6-7.44-6.72s-7.07-.23-10.61,0c-17,1-33.55-5.42-49.4-11.74l-64-25.55C160.18,132.15,151,130.63,141.74,132.77Z" transform="translate(-15.69 -2.83)" fill="url(#linear-gradient-2)"/><path d="M121.45,155.56c.33-1.2-1.38-1.84-2.62-1.84-3,0-6.43.53-8.16,3-1.11,1.57-1.27,3.6-1.39,5.52-.37,5.53-.73,11.07-.57,16.6a14.74,14.74,0,0,0,1.07,5.94,16.05,16.05,0,0,0,3.63,4.43c4.35,4.18,8.81,8.44,14.28,11,7.27,3.42,15.72,3.58,23.08,6.82,2.53,1.11,4.9,2.58,7.49,3.56,5.19,2,10.9,1.86,16.44,1.73,27.43-.66,54.41,3.7,81.22-2.11a40.13,40.13,0,0,0,9.77-3.09,44.37,44.37,0,0,0,6.8-4.6c7.79-6,15.91-12.44,19.65-21.53,3.34-8.11,2.7-17.49-.44-25.67S283.11,140,277,133.74c-5.72-5.9-12.21-11.26-19.81-14.37A81.36,81.36,0,0,0,243,115.49c-10.67-2.21-21.38-4.43-32.26-5A110,110,0,0,0,148,126.14c-2.8,1.7-5.81,4-6,7.26a55,55,0,0,0,18.38,8.46,21,21,0,0,1,5.17,1.75,32.12,32.12,0,0,1,4.7,4c7,6.06,18.11,7.45,22.44,15.61-6.2-.26-11.66-4.17-17.74-5.42-3.84-.79-7.81-.5-11.73-.28C149.82,158.22,134.79,156.8,121.45,155.56Z" transform="translate(-15.69 -2.83)" fill="#ff4500"/><path d="M121.45,155.56c.33-1.2-1.38-1.84-2.62-1.84-3,0-6.43.53-8.16,3-1.11,1.57-1.27,3.6-1.39,5.52-.37,5.53-.73,11.07-.57,16.6a14.74,14.74,0,0,0,1.07,5.94,16.05,16.05,0,0,0,3.63,4.43c4.35,4.18,8.81,8.44,14.28,11,7.27,3.42,15.72,3.58,23.08,6.82,2.53,1.11,4.9,2.58,7.49,3.56,5.19,2,10.9,1.86,16.44,1.73,27.43-.66,54.41,3.7,81.22-2.11a40.13,40.13,0,0,0,9.77-3.09,44.37,44.37,0,0,0,6.8-4.6c7.79-6,15.91-12.44,19.65-21.53,3.34-8.11,2.7-17.49-.44-25.67S283.11,140,277,133.74c-5.72-5.9-12.21-11.26-19.81-14.37A81.36,81.36,0,0,0,243,115.49c-10.67-2.21-21.38-4.43-32.26-5A110,110,0,0,0,148,126.14c-2.8,1.7-5.81,4-6,7.26a55,55,0,0,0,18.38,8.46,21,21,0,0,1,5.17,1.75,32.12,32.12,0,0,1,4.7,4c7,6.06,18.11,7.45,22.44,15.61-6.2-.26-11.66-4.17-17.74-5.42-3.84-.79-7.81-.5-11.73-.28C149.82,158.22,134.79,156.8,121.45,155.56Z" transform="translate(-15.69 -2.83)" fill="#ff4500"/><path d="M121.45,155.56c.33-1.2-1.38-1.84-2.62-1.84-3,0-6.43.53-8.16,3-1.11,1.57-1.27,3.6-1.39,5.52-.37,5.53-.73,11.07-.57,16.6a14.74,14.74,0,0,0,1.07,5.94,16.05,16.05,0,0,0,3.63,4.43c4.35,4.18,8.81,8.44,14.28,11,7.27,3.42,15.72,3.58,23.08,6.82,2.53,1.11,4.9,2.58,7.49,3.56,5.19,2,10.9,1.86,16.44,1.73,27.43-.66,54.41,3.7,81.22-2.11a40.13,40.13,0,0,0,9.77-3.09,44.37,44.37,0,0,0,6.8-4.6c7.79-6,15.91-12.44,19.65-21.53,3.34-8.11,2.7-17.49-.44-25.67S283.11,140,277,133.74c-5.72-5.9-12.21-11.26-19.81-14.37A81.36,81.36,0,0,0,243,115.49c-10.67-2.21-21.38-4.43-32.26-5A110,110,0,0,0,148,126.14c-2.8,1.7-5.81,4-6,7.26a55,55,0,0,0,18.38,8.46,21,21,0,0,1,5.17,1.75,32.12,32.12,0,0,1,4.7,4c7,6.06,18.11,7.45,22.44,15.61-6.2-.26-11.66-4.17-17.74-5.42-3.84-.79-7.81-.5-11.73-.28C149.82,158.22,134.79,156.8,121.45,155.56Z" transform="translate(-15.69 -2.83)" fill="url(#linear-gradient-3)"/><path d="M122.65,152.68c.33-1.13-1.38-1.73-2.62-1.73-3,0-6.43.5-8.16,2.82a9.45,9.45,0,0,0-1.39,5.17,155.21,155.21,0,0,0-.57,15.54A13,13,0,0,0,111,180a15.32,15.32,0,0,0,3.62,4.15c4.36,3.91,8.82,7.9,14.28,10.3,7.27,3.21,15.73,3.35,23.08,6.38,2.53,1,4.91,2.42,7.49,3.34,5.19,1.84,10.9,1.74,16.45,1.62,27.42-.62,54.4,3.46,81.21-2a42.34,42.34,0,0,0,9.77-2.9,44.11,44.11,0,0,0,6.8-4.31C281.48,191,289.6,185,293.35,176.5c3.34-7.59,2.69-16.37-.45-24s-8.58-14.33-14.69-20.22c-5.72-5.52-12.21-10.54-19.81-13.45a84.8,84.8,0,0,0-14.25-3.63c-10.67-2.08-21.38-4.16-32.25-4.72a115.87,115.87,0,0,0-62.67,14.69c-2.8,1.59-5.81,3.73-6,6.79a56.57,56.57,0,0,0,18.37,7.92,21.51,21.51,0,0,1,5.17,1.64,31,31,0,0,1,4.7,3.71c7,5.67,18.11,7,22.44,14.61-6.2-.24-11.65-3.91-17.74-5.08-3.84-.74-7.81-.46-11.73-.26C151,155.17,136,153.83,122.65,152.68Z" transform="translate(-15.69 -2.83)" fill="url(#linear-gradient-4)"/><path d="M125.78,123c-.84,3.66-2,7.28-2.23,11-.29,4.38.65,8.87-.37,13.14-.7,2.93-2.3,6-1.21,8.78l2.2-.73a66.48,66.48,0,0,1,2.25-22.89,64.86,64.86,0,0,0,1.71-6.58c.84-4.94,0-10.15,1.5-14.92.2-.63.59-1.35,1.24-1.35a1.47,1.47,0,0,1,.89.43c2.24,2,2.18,5.43,1.93,8.42l-2,24.57c2.84-1.66,3-5.61,3.16-8.89.48-7.94,3.44-15.5,6.36-22.9a67.36,67.36,0,0,1-9.12,41c-1,1.75-2.2,3.59-2.11,5.62a13,13,0,0,0,6.86-1c2.1-14,7.46-27.22,12.79-40.3l-1.92,16.45,5-14.7c.28-.82,1-1.84,1.77-1.42.46.26.51.9.49,1.43-.44,11.92-5.14,23.43-5.06,35.36,2.72-3.39,2.92-8.07,3.26-12.4a113.79,113.79,0,0,1,5-25.52c1.63-.66,3.4,1,3.59,2.8s-.62,3.42-1.19,5.08c-1.07,3.09-1.25,6.83.86,9.33A27.74,27.74,0,0,0,165,120.25a5,5,0,0,1,3.14-.26c1.39,5,.16,10.35-.71,15.5s-1.3,10.78,1.43,15.23c3-4.45,2.77-10.31,1.95-15.63-.37-2.44-.84-5-.23-7.34s2.68-4.62,5.14-4.51c2.76.13,4.56,2.93,5.55,5.51a8.91,8.91,0,0,1,.68,5.52l2.71-4.75.14,29.95,4.16-22.08-.36,14.17a35.71,35.71,0,0,0,3.71-18.4,3.63,3.63,0,0,0-.52-1.95c-.36-.49-1.33-4.51-1.87-4.78-8.16-4.16-15-8.45-23.12-12.61-5.95-3-12.88-2.25-19.28-4.19-3.58-1.08-7.27-1.8-10.94-2.53-2.64-.54-6.71-2.26-9.31-.8-2.88,1.61-1.39,3.93-.86,6.45A24.31,24.31,0,0,1,125.78,123Z" transform="translate(-15.69 -2.83)" fill="url(#linear-gradient-5)"/><path d="M195.71,163.36a4.06,4.06,0,0,0,1.9-4.29,7.73,7.73,0,0,0-1.74-3A78.79,78.79,0,0,0,162,132c4.57-6,13.33-6.51,20.91-6.41l29.08.36a125.58,125.58,0,0,1,14.51.75c17.88,2.31,33.89,12.21,48,23.49a16.45,16.45,0,0,1,4.4,4.64,16.86,16.86,0,0,1,1.57,5.51c.83,5,1.49,10.66-1.7,14.58-1.56,1.91-3.84,3.1-5.56,4.87s-2.75,3.87-4.18,5.76a21.14,21.14,0,0,1-12.33,7.77c-3.69,5.84-11.64,6.91-18.55,7.06a226.57,226.57,0,0,1-47.21-3.88c-10.53-2-20.91-4.72-31.46-6.65-6-1.11-12.18-2-18-3.91s-11.44-5.13-15.13-10-5.16-11.76-2.66-17.38a10.08,10.08,0,0,0,.2-2.28,11.1,11.1,0,0,0,4.77.49q19.38-.84,38.81-.25a50.49,50.49,0,0,1,8.06.69A47.88,47.88,0,0,1,182,159C186.78,160.65,191,161.48,195.71,163.36Z" transform="translate(-15.69 -2.83)" fill="#ff4500"/><path d="M195.71,163.36a4.06,4.06,0,0,0,1.9-4.29,7.73,7.73,0,0,0-1.74-3A78.79,78.79,0,0,0,162,132c4.57-6,13.33-6.51,20.91-6.41l29.08.36a125.58,125.58,0,0,1,14.51.75c17.88,2.31,33.89,12.21,48,23.49a16.45,16.45,0,0,1,4.4,4.64,16.86,16.86,0,0,1,1.57,5.51c.83,5,1.49,10.66-1.7,14.58-1.56,1.91-3.84,3.1-5.56,4.87s-2.75,3.87-4.18,5.76a21.14,21.14,0,0,1-12.33,7.77c-3.69,5.84-11.64,6.91-18.55,7.06a226.57,226.57,0,0,1-47.21-3.88c-10.53-2-20.91-4.72-31.46-6.65-6-1.11-12.18-2-18-3.91s-11.44-5.13-15.13-10-5.16-11.76-2.66-17.38a10.08,10.08,0,0,0,.2-2.28,11.1,11.1,0,0,0,4.77.49q19.38-.84,38.81-.25a50.49,50.49,0,0,1,8.06.69A47.88,47.88,0,0,1,182,159C186.78,160.65,191,161.48,195.71,163.36Z" transform="translate(-15.69 -2.83)" fill="url(#linear-gradient-6)"/><path d="M147.71,168a2.75,2.75,0,0,0-1.66-3.21,6.86,6.86,0,0,0-3.92-.22c-1.09.18-2.39.63-2.59,1.72-1.27-.12-2.72-.16-3.59.75a3.54,3.54,0,0,0-.77,1.65,9.49,9.49,0,0,0-.05,4,2.45,2.45,0,0,0,.44,1.08,2.35,2.35,0,0,0,.94.64,8.52,8.52,0,0,0,5.42.29,15,15,0,0,0,4.92-2.41,5.22,5.22,0,0,0,2.32-2.79,2.94,2.94,0,0,0-1-2.95" transform="translate(-15.69 -2.83)" fill="url(#linear-gradient-7)"/><path d="M157.39,163a2.51,2.51,0,0,0-1.43.72,2.56,2.56,0,0,0-.5,1.29,12.61,12.61,0,0,0-.12,3.36,2.72,2.72,0,0,0,.34,1.22c.44.68,1.32.88,2,1.31.86.55,1.43,1.51,2.35,1.95a4.9,4.9,0,0,0,2.58.25c1.15-.1,2.3-.24,3.44-.41a4.6,4.6,0,0,0,2-.62c1.14-.78,1.4-2.33,1.55-3.71a2.68,2.68,0,0,0,0-1.13,2.54,2.54,0,0,0-.65-.91A12,12,0,0,0,157.39,163Z" transform="translate(-15.69 -2.83)" fill="url(#linear-gradient-8)"/><path d="M160.76,175.88a6.21,6.21,0,0,0-2.91,1.78c-1.28,1.6-1,4-.12,5.84a2.57,2.57,0,0,0,.56.85,2.65,2.65,0,0,0,1.23.48,15.45,15.45,0,0,0,5.24.38,6.78,6.78,0,0,0,4.54-2.44,3.35,3.35,0,0,0,.65-1.29,3.59,3.59,0,0,0-.35-2.38C167.86,175.53,164.26,174.67,160.76,175.88Z" transform="translate(-15.69 -2.83)" fill="url(#linear-gradient-9)"/><path d="M177.88,167.2a1.5,1.5,0,0,0-.76,0,1.7,1.7,0,0,0-.85.86,6.3,6.3,0,0,0-.79,3.91,4.86,4.86,0,0,0,2.08,3.35,8.58,8.58,0,0,0,4.6.91,7.21,7.21,0,0,0,4.29-.89,6.59,6.59,0,0,0,2.15-3.73.89.89,0,0,0,0-.58.8.8,0,0,0-.43-.36,6.85,6.85,0,0,0-2.21-.85,2.35,2.35,0,0,0-2.15.74c0-.53.39-1,.73-1.38a5.49,5.49,0,0,0,1.41-3.55c-1-.16-2.69-.59-3.73-.29-1.24.35-1.49,2-2.09,3A5.27,5.27,0,0,0,177.88,167.2Z" transform="translate(-15.69 -2.83)" fill="url(#linear-gradient-10)"/><path d="M182.13,185.85a7.12,7.12,0,0,1,2-2.62,5.85,5.85,0,0,1,3.26-1,7.84,7.84,0,0,1,4.27.87,4.9,4.9,0,0,1,2.52,3.44.83.83,0,0,1-.05.54.9.9,0,0,1-.34.3,14.09,14.09,0,0,1-2.73,1.27l-.22-1.3a.79.79,0,0,0-.25-.56c-.3-.21-.71.07-.86.4-.42,1,.45,2,.61,3a.8.8,0,0,1-.14.69,1,1,0,0,1-.49.24,11.5,11.5,0,0,1-2.86.31.55.55,0,0,1-.31-.07.61.61,0,0,1-.22-.39,6.24,6.24,0,0,1-.17-1.55,2.11,2.11,0,0,0-.1-1,1.21,1.21,0,0,0-1.91-.13,2.31,2.31,0,0,0-.34,2.14,15,15,0,0,1-1.65-.5,2.2,2.2,0,0,1-1.07-1.12C180.78,188,181.72,186.64,182.13,185.85Z" transform="translate(-15.69 -2.83)" fill="url(#linear-gradient-11)"/><path d="M201.17,182.1a9.27,9.27,0,0,0-2.52,3.35,6.24,6.24,0,0,0,.48,5.16,8.5,8.5,0,0,0,3.92,3.5,5.35,5.35,0,0,0,2.14.56,5.87,5.87,0,0,0,3.25-1.23c4-2.78,6.71-8.24,3.68-12.77C209.48,176.72,203.75,179.69,201.17,182.1Z" transform="translate(-15.69 -2.83)" fill="url(#linear-gradient-12)"/><path d="M193.81,166.92c-1.05,1-2.09,2.2-2,3.63a3.85,3.85,0,0,0,2.38,3,4.75,4.75,0,0,0,3.5.33,7.18,7.18,0,0,0,2.76-2.18,4.06,4.06,0,0,0,.81-1.12,3.28,3.28,0,0,0-.48-2.89c-.64-1-1.74-2.4-3.07-2.41A5.68,5.68,0,0,0,193.81,166.92Z" transform="translate(-15.69 -2.83)" fill="url(#linear-gradient-13)"/><path d="M195,170.65a3,3,0,0,0,2.1,1.24,1.59,1.59,0,0,0,.81-.08,1.67,1.67,0,0,0,.76-.85c.68-1.44.8-3.91-1.29-4S193.7,168.81,195,170.65Z" transform="translate(-15.69 -2.83)" fill="url(#linear-gradient-14)"/><path d="M226.73,182.71a6.36,6.36,0,0,0-3.93,5.92,3.7,3.7,0,0,0,1.79,3,5.37,5.37,0,0,0,2.32.49,6.27,6.27,0,0,0,2.72-.38,4.53,4.53,0,0,0,2.47-3.61c.16-1.25-.09-4-1.24-4.85a7.38,7.38,0,0,0-1.6-.56A4,4,0,0,0,226.73,182.71Z" transform="translate(-15.69 -2.83)" fill="url(#linear-gradient-15)"/><path d="M229.29,185.09a1.66,1.66,0,0,0-1.44-.13,2.65,2.65,0,0,0-1.06.85,7.26,7.26,0,0,0-1,1.78,2.16,2.16,0,0,0-.21.9,1.68,1.68,0,0,0,.69,1.25,3,3,0,0,0,1.38.52,1.32,1.32,0,0,0,.79-.09,1.22,1.22,0,0,0,.38-.43,6,6,0,0,0,.43-.93,5.2,5.2,0,0,0,.5-1.87,2.71,2.71,0,0,0-1.38-2.36" transform="translate(-15.69 -2.83)" fill="url(#linear-gradient-16)"/><path d="M239.22,172.8a5.7,5.7,0,0,0-3.39,3.94,12.44,12.44,0,0,0-.91,5.57,5.3,5.3,0,0,0,3.13,4.41,7.46,7.46,0,0,0,3.55.14,18.67,18.67,0,0,0,8.74-3.17c2.5-1.89,4.24-5,3.82-8.11a3.4,3.4,0,0,0-.58-1.58,4.34,4.34,0,0,0-1.24-1,16.28,16.28,0,0,0-6.9-2.43C243.32,170.42,241,171.85,239.22,172.8Z" transform="translate(-15.69 -2.83)" fill="url(#linear-gradient-17)"/><path d="M223.88,159.69c-1.85-.19-3.92,0-5.19,1.35a6.94,6.94,0,0,0-1.14,1.86c-.45.94-.87,1.9-1.27,2.86a4.57,4.57,0,0,0-.49,2.44A3.11,3.11,0,0,0,217,170a8.23,8.23,0,0,0,4.91,1.3,43.51,43.51,0,0,0,10-.88,3.59,3.59,0,0,0,1.6-.61,3.8,3.8,0,0,0,1.08-2.22,2.35,2.35,0,0,0,0-1.46,2.5,2.5,0,0,0-.69-.76C231,163.08,227.9,159.69,223.88,159.69Z" transform="translate(-15.69 -2.83)" fill="url(#linear-gradient-18)"/><path d="M258.7,160.8a4.61,4.61,0,0,0-2.13.3,3.62,3.62,0,0,0-1.25,1.24,13.06,13.06,0,0,0-1.63,3.36,2.23,2.23,0,0,0-.13,1.22,2.32,2.32,0,0,0,.9,1.13A17.64,17.64,0,0,0,269,171.41a7.26,7.26,0,0,0,3.82-1.9,5.32,5.32,0,0,0,.85-5.57,7.84,7.84,0,0,0-6.52-4.55C264.34,159.37,261.6,160.78,258.7,160.8Z" transform="translate(-15.69 -2.83)" fill="url(#linear-gradient-19)"/><path d="M244.5,144.65a4.68,4.68,0,0,0-2.08,4.11,25.92,25.92,0,0,1,4.91,1.92c.22.11.54.2.67,0a27.27,27.27,0,0,0-5.83,3.85.93.93,0,0,0-.37.53.88.88,0,0,0,.32.69,5.5,5.5,0,0,0,3.87,1.67,2.43,2.43,0,0,0,.85-.11c.8-.28,1.24-1.1,1.71-1.8a10.06,10.06,0,0,1,3.81-3.4,1.5,1.5,0,0,0,.32,1.33,1.45,1.45,0,0,0,.57.24,6.26,6.26,0,0,0,3.91-.39,11.62,11.62,0,0,0-.23-4.51,3.69,3.69,0,0,0-.63-1.43,4.1,4.1,0,0,0-1.25-.92c-.93-.52-1.88-1-2.83-1.51a6.91,6.91,0,0,0-3.71-.84C247.14,144.14,245.76,143.92,244.5,144.65Z" transform="translate(-15.69 -2.83)" fill="url(#linear-gradient-20)"/><path d="M219.68,139.24a7.74,7.74,0,0,0-2.74,3.77,3.37,3.37,0,0,0-.34,1.86,3.66,3.66,0,0,0,.91,1.58,7.81,7.81,0,0,0,3.35,2.78,6.43,6.43,0,0,0,3.37,0,10,10,0,0,0,4.8-2.4,3.83,3.83,0,0,0,.92-1.27,4,4,0,0,0,.15-2c-.26-2-1.62-4.59-3.74-5.08a13.75,13.75,0,0,0-3-.13A6.84,6.84,0,0,0,219.68,139.24Z" transform="translate(-15.69 -2.83)" fill="url(#linear-gradient-21)"/><path d="M238.35,135.22a2.4,2.4,0,0,0-1.61-.84,11.7,11.7,0,0,0-3.34-.15,3.64,3.64,0,0,0-1.46.39,1.56,1.56,0,0,0-.84,1.21,2,2,0,0,0,.5,1.25A8,8,0,0,0,234,139a21.35,21.35,0,0,0,4.43,2,1.81,1.81,0,0,0,1.37,0,1.63,1.63,0,0,0,.61-.73,6.35,6.35,0,0,0,.66-2.25,2,2,0,0,0-.12-1,2.35,2.35,0,0,0-1.33-1,26.68,26.68,0,0,0-3.28-1.06" transform="translate(-15.69 -2.83)" fill="url(#linear-gradient-22)"/><path d="M215.41,132.4a7.42,7.42,0,0,0-2-1.06,10.07,10.07,0,0,0-6.95,0,4.67,4.67,0,0,0-1.81,1.1,2.26,2.26,0,0,0-.63,2,2.4,2.4,0,0,0,1.37,1.57,6.47,6.47,0,0,0,2.1.46,40.15,40.15,0,0,0,6.67,0,2,2,0,0,0,.94-.24,1.37,1.37,0,0,0,.48-1.41,4,4,0,0,0-.69-1.4" transform="translate(-15.69 -2.83)" fill="url(#linear-gradient-23)"/><path d="M198.44,142.35a8.67,8.67,0,0,0-2.15,1.33,3.39,3.39,0,0,0-1.16,2.18,1.53,1.53,0,0,0,.2,1,2.06,2.06,0,0,0,1.29.74,28,28,0,0,0,4,.68c2.25.25,4.64.35,6.64-.71a4.17,4.17,0,0,0,1.76-1.67,2.45,2.45,0,0,0,0-2.35,3.6,3.6,0,0,0-1-1c-1.12-.77-2.57-1.93-4-1.84A15.93,15.93,0,0,0,198.44,142.35Z" transform="translate(-15.69 -2.83)" fill="url(#linear-gradient-24)"/><path d="M148.24,165.78a2.75,2.75,0,0,0-1.66-3.21,6.86,6.86,0,0,0-3.92-.22c-1.1.18-2.4.63-2.6,1.72-1.26-.12-2.71-.16-3.58.75a3.51,3.51,0,0,0-.78,1.65,9.65,9.65,0,0,0,0,4,2.45,2.45,0,0,0,.44,1.08,2.39,2.39,0,0,0,.95.64,8.49,8.49,0,0,0,5.41.3,15.31,15.31,0,0,0,4.93-2.42,5.27,5.27,0,0,0,2.32-2.79,3,3,0,0,0-1-2.95" transform="translate(-15.69 -2.83)" fill="#ff4500"/><path d="M157.91,160.84a2.64,2.64,0,0,0-1.43.72,2.55,2.55,0,0,0-.49,1.29,12.61,12.61,0,0,0-.12,3.36,2.69,2.69,0,0,0,.34,1.22c.44.68,1.31.88,2,1.31.86.56,1.43,1.51,2.35,1.95a4.93,4.93,0,0,0,2.59.25c1.15-.1,2.29-.24,3.43-.4a4.7,4.7,0,0,0,2-.63c1.15-.78,1.4-2.33,1.56-3.71a1.93,1.93,0,0,0-.7-2A11.94,11.94,0,0,0,157.91,160.84Z" transform="translate(-15.69 -2.83)" fill="#ff4500"/><path d="M161.28,173.69a6.26,6.26,0,0,0-2.91,1.78c-1.28,1.6-1,4-.11,5.84a2.42,2.42,0,0,0,.56.85,2.67,2.67,0,0,0,1.22.49,15.76,15.76,0,0,0,5.25.37,6.82,6.82,0,0,0,4.54-2.44,3.65,3.65,0,0,0,.65-1.29,3.6,3.6,0,0,0-.35-2.38C168.39,173.34,164.79,172.48,161.28,173.69Z" transform="translate(-15.69 -2.83)" fill="#ff4500"/><path d="M178.41,165a1.54,1.54,0,0,0-.77,0,1.7,1.7,0,0,0-.85.86,6.22,6.22,0,0,0-.78,3.91,4.86,4.86,0,0,0,2.08,3.35,8.54,8.54,0,0,0,4.6.91,7.19,7.19,0,0,0,4.28-.89,6.59,6.59,0,0,0,2.15-3.73.78.78,0,0,0,0-.58.79.79,0,0,0-.42-.36,6.74,6.74,0,0,0-2.22-.84,2.32,2.32,0,0,0-2.15.74,2.13,2.13,0,0,1,.74-1.38,5.65,5.65,0,0,0,1.41-3.56c-1-.16-2.7-.59-3.74-.29-1.24.35-1.48,2-2.09,3A5.34,5.34,0,0,0,178.41,165Z" transform="translate(-15.69 -2.83)" fill="#ff4500"/><path d="M182.65,183.67a7.26,7.26,0,0,1,2-2.63,5.88,5.88,0,0,1,3.27-1,7.86,7.86,0,0,1,4.27.87,5,5,0,0,1,2.52,3.44.83.83,0,0,1-.05.54.92.92,0,0,1-.35.3,14.45,14.45,0,0,1-2.73,1.28l-.21-1.31a.8.8,0,0,0-.26-.56c-.29-.21-.71.07-.85.4-.42,1,.44,2,.61,3a.87.87,0,0,1-.14.69,1,1,0,0,1-.5.24,11.4,11.4,0,0,1-2.86.31.46.46,0,0,1-.52-.46,6.24,6.24,0,0,1-.17-1.55,2.11,2.11,0,0,0-.1-1,1.21,1.21,0,0,0-1.91-.13,2.28,2.28,0,0,0-.34,2.14,14.39,14.39,0,0,1-1.65-.5,2.18,2.18,0,0,1-1.07-1.11C181.31,185.77,182.25,184.45,182.65,183.67Z" transform="translate(-15.69 -2.83)" fill="#ff4500"/><path d="M201.7,179.91a9.45,9.45,0,0,0-2.52,3.35,6.27,6.27,0,0,0,.47,5.16,8.5,8.5,0,0,0,3.92,3.5,5.4,5.4,0,0,0,2.15.56,5.87,5.87,0,0,0,3.24-1.23c4-2.78,6.72-8.24,3.69-12.77C210,174.53,204.27,177.5,201.7,179.91Z" transform="translate(-15.69 -2.83)" fill="#ff4500"/><path d="M194.34,164.73c-1.05,1-2.09,2.21-2,3.63a3.89,3.89,0,0,0,2.38,3,4.72,4.72,0,0,0,3.51.33,7.08,7.08,0,0,0,2.75-2.18,4.06,4.06,0,0,0,.81-1.12,3.25,3.25,0,0,0-.48-2.89c-.63-1-1.73-2.4-3.06-2.41A5.71,5.71,0,0,0,194.34,164.73Z" transform="translate(-15.69 -2.83)" fill="#ff4500"/><path d="M195.47,168.46a3,3,0,0,0,2.1,1.24,1.62,1.62,0,0,0,.82-.08,1.69,1.69,0,0,0,.75-.85c.69-1.43.81-3.91-1.28-4S194.22,166.62,195.47,168.46Z" transform="translate(-15.69 -2.83)" fill="url(#linear-gradient-25)"/><path d="M227.26,180.52a5.9,5.9,0,0,0-3,2.5,5.81,5.81,0,0,0-1,3.42,3.65,3.65,0,0,0,1.78,3,5.45,5.45,0,0,0,2.33.49,6.21,6.21,0,0,0,2.71-.38,4.54,4.54,0,0,0,2.48-3.61c.16-1.25-.09-4-1.24-4.85a7.77,7.77,0,0,0-1.6-.56A4,4,0,0,0,227.26,180.52Z" transform="translate(-15.69 -2.83)" fill="#ff4500"/><path d="M229.82,182.9a1.68,1.68,0,0,0-1.45-.13,2.69,2.69,0,0,0-1.05.85,7.29,7.29,0,0,0-1.06,1.78,2.52,2.52,0,0,0-.21.9,1.64,1.64,0,0,0,.7,1.25,3,3,0,0,0,1.38.52,1.3,1.3,0,0,0,.78-.09,1.13,1.13,0,0,0,.38-.43,6.09,6.09,0,0,0,.44-.93,5.36,5.36,0,0,0,.5-1.87,2.7,2.7,0,0,0-1.39-2.36" transform="translate(-15.69 -2.83)" fill="#ff4500"/><path d="M239.75,170.61a7.2,7.2,0,0,0-2.17,1.56,7,7,0,0,0-1.22,2.38,12.44,12.44,0,0,0-.91,5.57,5.3,5.3,0,0,0,3.13,4.41,7.3,7.3,0,0,0,3.54.14,18.63,18.63,0,0,0,8.74-3.17c2.5-1.89,4.25-5,3.82-8.11a3.3,3.3,0,0,0-.58-1.58,4.08,4.08,0,0,0-1.24-1,16.19,16.19,0,0,0-6.89-2.43C243.84,168.23,241.56,169.66,239.75,170.61Z" transform="translate(-15.69 -2.83)" fill="#ff4500"/><path d="M224.4,157.5c-1.84-.19-3.92,0-5.19,1.35a6.94,6.94,0,0,0-1.14,1.86c-.44.94-.87,1.9-1.26,2.86a4.39,4.39,0,0,0-.49,2.44,3.07,3.07,0,0,0,1.18,1.83,8.2,8.2,0,0,0,4.9,1.3,43.64,43.64,0,0,0,10-.88,3.63,3.63,0,0,0,1.6-.61,3.89,3.89,0,0,0,1.08-2.22,2.28,2.28,0,0,0,0-1.46,2.15,2.15,0,0,0-.69-.75C231.49,160.89,228.43,157.5,224.4,157.5Z" transform="translate(-15.69 -2.83)" fill="#ff4500"/><path d="M259.22,158.61a4.58,4.58,0,0,0-2.12.3,3.53,3.53,0,0,0-1.25,1.24,12.74,12.74,0,0,0-1.63,3.36,2.14,2.14,0,0,0-.13,1.22,2.21,2.21,0,0,0,.9,1.13,17.62,17.62,0,0,0,14.54,3.36,7.33,7.33,0,0,0,3.83-1.9,5.34,5.34,0,0,0,.85-5.57,7.83,7.83,0,0,0-6.52-4.54C264.87,157.18,262.12,158.59,259.22,158.61Z" transform="translate(-15.69 -2.83)" fill="#ff4500"/><path d="M245,142.46a4.66,4.66,0,0,0-2.08,4.11,26.46,26.46,0,0,1,4.91,1.92c.22.11.54.2.67,0a26.7,26.7,0,0,0-5.83,3.86.92.92,0,0,0-.38.52.89.89,0,0,0,.33.69,5.46,5.46,0,0,0,3.86,1.67,2.29,2.29,0,0,0,.86-.11c.79-.28,1.24-1.1,1.7-1.8a10.09,10.09,0,0,1,3.82-3.4,1.5,1.5,0,0,0,.32,1.33,1.4,1.4,0,0,0,.56.24,6.29,6.29,0,0,0,3.92-.39,11.62,11.62,0,0,0-.23-4.51,3.56,3.56,0,0,0-.64-1.43,4.18,4.18,0,0,0-1.24-.92c-.94-.52-1.88-1-2.84-1.51a6.88,6.88,0,0,0-3.7-.84C247.66,142,246.28,141.73,245,142.46Z" transform="translate(-15.69 -2.83)" fill="#ff4500"/><path d="M220.21,137.05a7.79,7.79,0,0,0-2.74,3.77,3.28,3.28,0,0,0-.34,1.86,3.66,3.66,0,0,0,.91,1.58,7.75,7.75,0,0,0,3.35,2.78,6.43,6.43,0,0,0,3.37,0,10.12,10.12,0,0,0,4.8-2.4,3.67,3.67,0,0,0,.91-1.27,3.87,3.87,0,0,0,.16-2c-.27-2-1.62-4.59-3.74-5.08a13.78,13.78,0,0,0-3-.13A6.8,6.8,0,0,0,220.21,137.05Z" transform="translate(-15.69 -2.83)" fill="#ff4500"/><path d="M238.87,133a2.42,2.42,0,0,0-1.61-.84,11.61,11.61,0,0,0-3.33-.15,3.69,3.69,0,0,0-1.47.39,1.57,1.57,0,0,0-.83,1.21,1.91,1.91,0,0,0,.49,1.25,8.08,8.08,0,0,0,2.4,1.94,21.61,21.61,0,0,0,4.43,1.95,1.79,1.79,0,0,0,1.36,0,1.59,1.59,0,0,0,.62-.73,6.33,6.33,0,0,0,.65-2.25,2,2,0,0,0-.11-1,2.29,2.29,0,0,0-1.34-1,23.53,23.53,0,0,0-3.27-1.06" transform="translate(-15.69 -2.83)" fill="#ff4500"/><path d="M215.94,130.22a7.32,7.32,0,0,0-2-1.07,10.1,10.1,0,0,0-7,0,4.64,4.64,0,0,0-1.8,1.1,2.27,2.27,0,0,0-.64,2,2.37,2.37,0,0,0,1.38,1.57,6.47,6.47,0,0,0,2.09.46,40.27,40.27,0,0,0,6.68,0,2.05,2.05,0,0,0,.94-.24,1.39,1.39,0,0,0,.48-1.41,4.26,4.26,0,0,0-.69-1.4" transform="translate(-15.69 -2.83)" fill="#ff4500"/><path d="M199,140.16a8.32,8.32,0,0,0-2.15,1.33,3.4,3.4,0,0,0-1.17,2.18,1.59,1.59,0,0,0,.2,1,2.09,2.09,0,0,0,1.29.74,27.91,27.91,0,0,0,4,.68c2.24.25,4.64.35,6.63-.71a4,4,0,0,0,1.76-1.66,2.44,2.44,0,0,0,0-2.36,3.36,3.36,0,0,0-1-1c-1.11-.77-2.57-1.92-4-1.84A15.87,15.87,0,0,0,199,140.16Z" transform="translate(-15.69 -2.83)" fill="#ff4500"/><path d="M125,123c-.84,3.66-2,7.28-2.23,11-.29,4.38.65,8.87-.37,13.14-.7,2.93-2.3,6-1.21,8.78l2.2-.73a66.48,66.48,0,0,1,2.25-22.89,64.86,64.86,0,0,0,1.71-6.58c.84-4.94,0-10.15,1.5-14.92.2-.63.59-1.35,1.24-1.35a1.47,1.47,0,0,1,.89.43c2.24,2,2.18,5.43,1.93,8.42l-2,24.57c2.84-1.66,3-5.61,3.16-8.89.48-7.94,3.44-15.5,6.36-22.9a67.36,67.36,0,0,1-9.12,41c-1,1.75-2.2,3.59-2.11,5.62a13,13,0,0,0,6.86-1c2.1-14,7.46-27.22,12.79-40.3l-1.92,16.45,5-14.7c.28-.82,1-1.84,1.77-1.42.46.26.51.9.49,1.43-.44,11.92-5.13,23.43-5.06,35.36,2.72-3.39,2.92-8.07,3.26-12.4a113.25,113.25,0,0,1,5-25.52c1.62-.66,3.39,1,3.58,2.8s-.62,3.42-1.19,5.08c-1.07,3.09-1.25,6.83.86,9.33a27.74,27.74,0,0,0,3.66-12.64,5,5,0,0,1,3.14-.26c1.39,5,.16,10.35-.71,15.5s-1.3,10.78,1.43,15.23c3-4.45,2.77-10.31,1.95-15.63-.37-2.44-.84-5-.23-7.34s2.68-4.62,5.14-4.51c2.76.13,4.56,2.93,5.55,5.51a8.91,8.91,0,0,1,.68,5.52l2.71-4.75.14,29.95,4.16-22.08-.36,14.17a35.71,35.71,0,0,0,3.71-18.4,3.63,3.63,0,0,0-.52-1.95c-.36-.49-1.33-4.51-1.87-4.78-8.16-4.16-15-8.45-23.12-12.61-5.95-3-12.88-2.25-19.28-4.19-3.58-1.08-7.26-1.8-10.94-2.53-2.64-.54-6.71-2.26-9.31-.8-2.88,1.61-1.39,3.93-.86,6.45A24.31,24.31,0,0,1,125,123Z" transform="translate(-15.69 -2.83)" fill="#ff4500"/><path d="M125,123c-.84,3.66-2,7.28-2.23,11-.29,4.38.65,8.87-.37,13.14-.7,2.93-2.3,6-1.21,8.78l2.2-.73a66.48,66.48,0,0,1,2.25-22.89,64.86,64.86,0,0,0,1.71-6.58c.84-4.94,0-10.15,1.5-14.92.2-.63.59-1.35,1.24-1.35a1.47,1.47,0,0,1,.89.43c2.24,2,2.18,5.43,1.93,8.42l-2,24.57c2.84-1.66,3-5.61,3.16-8.89.48-7.94,3.44-15.5,6.36-22.9a67.36,67.36,0,0,1-9.12,41c-1,1.75-2.2,3.59-2.11,5.62a13,13,0,0,0,6.86-1c2.1-14,7.46-27.22,12.79-40.3l-1.92,16.45,5-14.7c.28-.82,1-1.84,1.77-1.42.46.26.51.9.49,1.43-.44,11.92-5.13,23.43-5.06,35.36,2.72-3.39,2.92-8.07,3.26-12.4a113.25,113.25,0,0,1,5-25.52c1.62-.66,3.39,1,3.58,2.8s-.62,3.42-1.19,5.08c-1.07,3.09-1.25,6.83.86,9.33a27.74,27.74,0,0,0,3.66-12.64,5,5,0,0,1,3.14-.26c1.39,5,.16,10.35-.71,15.5s-1.3,10.78,1.43,15.23c3-4.45,2.77-10.31,1.95-15.63-.37-2.44-.84-5-.23-7.34s2.68-4.62,5.14-4.51c2.76.13,4.56,2.93,5.55,5.51a8.91,8.91,0,0,1,.68,5.52l2.71-4.75.14,29.95,4.16-22.08-.36,14.17a35.71,35.71,0,0,0,3.71-18.4,3.63,3.63,0,0,0-.52-1.95c-.36-.49-1.33-4.51-1.87-4.78-8.16-4.16-15-8.45-23.12-12.61-5.95-3-12.88-2.25-19.28-4.19-3.58-1.08-7.26-1.8-10.94-2.53-2.64-.54-6.71-2.26-9.31-.8-2.88,1.61-1.39,3.93-.86,6.45A24.31,24.31,0,0,1,125,123Z" transform="translate(-15.69 -2.83)" fill="url(#linear-gradient-26)"/><path d="M125,123c-.84,3.66-2,7.28-2.23,11-.29,4.38.65,8.87-.37,13.14-.7,2.93-2.3,6-1.21,8.78l2.2-.73a66.48,66.48,0,0,1,2.25-22.89,64.86,64.86,0,0,0,1.71-6.58c.84-4.94,0-10.15,1.5-14.92.2-.63.59-1.35,1.24-1.35a1.47,1.47,0,0,1,.89.43c2.24,2,2.18,5.43,1.93,8.42l-2,24.57c2.84-1.66,3-5.61,3.16-8.89.48-7.94,3.44-15.5,6.36-22.9a67.36,67.36,0,0,1-9.12,41c-1,1.75-2.2,3.59-2.11,5.62a13,13,0,0,0,6.86-1c2.1-14,7.46-27.22,12.79-40.3l-1.92,16.45,5-14.7c.28-.82,1-1.84,1.77-1.42.46.26.51.9.49,1.43-.44,11.92-5.13,23.43-5.06,35.36,2.72-3.39,2.92-8.07,3.26-12.4a113.25,113.25,0,0,1,5-25.52c1.62-.66,3.39,1,3.58,2.8s-.62,3.42-1.19,5.08c-1.07,3.09-1.25,6.83.86,9.33a27.74,27.74,0,0,0,3.66-12.64,5,5,0,0,1,3.14-.26c1.39,5,.16,10.35-.71,15.5s-1.3,10.78,1.43,15.23c3-4.45,2.77-10.31,1.95-15.63-.37-2.44-.84-5-.23-7.34s2.68-4.62,5.14-4.51c2.76.13,4.56,2.93,5.55,5.51a8.91,8.91,0,0,1,.68,5.52l2.71-4.75.14,29.95,4.16-22.08-.36,14.17a35.71,35.71,0,0,0,3.71-18.4,3.63,3.63,0,0,0-.52-1.95c-.36-.49-1.33-4.51-1.87-4.78-8.16-4.16-15-8.45-23.12-12.61-5.95-3-12.88-2.25-19.28-4.19-3.58-1.08-7.26-1.8-10.94-2.53-2.64-.54-6.71-2.26-9.31-.8-2.88,1.61-1.39,3.93-.86,6.45A24.31,24.31,0,0,1,125,123Z" transform="translate(-15.69 -2.83)" fill="#fff" opacity="0.79" style="isolation:isolate"/><path d="M191.94,131.05a158.44,158.44,0,0,0-60.53-23.34c-5.24-.86-10.61-1.47-15.51-3.51a9.45,9.45,0,0,0-3.79-1.08,10.94,10.94,0,0,0-3,.75,14.48,14.48,0,0,1-8.4.09,7.47,7.47,0,0,1-4.65-3.33,9.91,9.91,0,0,1-.82-3c-.06-.42-.13-.84-.19-1.26a21.52,21.52,0,0,1-.25-5.88,8.57,8.57,0,0,1,3.39-6.09c1.84-1.22,4.15-1.38,6.31-1.85,3.63-.8,7-2.5,10.43-3.86a74.37,74.37,0,0,1,20.58-4.44c3.69-.33,7.39-.47,11.09-.55,3.27-.06,6.78.56,9.64-1.16a14,14,0,0,1,6.45,6.2,13.64,13.64,0,0,1,1.54,5.41,12.08,12.08,0,0,0,.27,2.48,8.28,8.28,0,0,0,1.68,2.84,278.52,278.52,0,0,1,23.08,34.45C190.59,126.11,191.86,128.48,191.94,131.05Z" transform="translate(-15.69 -2.83)" fill="#ff4500"/><path d="M191.94,131.05a158.44,158.44,0,0,0-60.53-23.34c-5.24-.86-10.61-1.47-15.51-3.51a9.45,9.45,0,0,0-3.79-1.08,10.94,10.94,0,0,0-3,.75,14.48,14.48,0,0,1-8.4.09,7.47,7.47,0,0,1-4.65-3.33,9.91,9.91,0,0,1-.82-3c-.06-.42-.13-.84-.19-1.26a21.52,21.52,0,0,1-.25-5.88,8.57,8.57,0,0,1,3.39-6.09c1.84-1.22,4.15-1.38,6.31-1.85,3.63-.8,7-2.5,10.43-3.86a74.37,74.37,0,0,1,20.58-4.44c3.69-.33,7.39-.47,11.09-.55,3.27-.06,6.78.56,9.64-1.16a14,14,0,0,1,6.45,6.2,13.64,13.64,0,0,1,1.54,5.41,12.08,12.08,0,0,0,.27,2.48,8.28,8.28,0,0,0,1.68,2.84,278.52,278.52,0,0,1,23.08,34.45C190.59,126.11,191.86,128.48,191.94,131.05Z" transform="translate(-15.69 -2.83)" fill="#ff4500"/><path d="M173.63,99.35c1.38,2.25,2.51,4.65,4,6.83,1.23,1.81,2.68,3.46,3.93,5.26a57,57,0,0,1,5.58,11.39Q164.38,113.71,142.3,103c-2.72-1.32-6-.24-8.61-1.85a52.37,52.37,0,0,0-9.35-4.52c-2.85-1-5.92-1.34-8.9-1.89-.75-.14-1.62-.41-1.84-1.14-.28-.92.71-1.71,1.56-2.18L119.5,89a20.27,20.27,0,0,1,3.91-1.42,35.88,35.88,0,0,1,8.75-1.77c2.81-.11,4.51-.16,7.33-.26,2.53-.1,5,.07,7.35-.86a36.61,36.61,0,0,1,15.39-2.5A.69.69,0,0,1,163,83C164,89.85,170.16,93.66,173.63,99.35Z" transform="translate(-15.69 -2.83)" fill="url(#linear-gradient-27)"/><path d="M101.67,85.66a6.81,6.81,0,0,1,6.21,1,11.18,11.18,0,0,1,4.23,5.45,4.12,4.12,0,0,0,1,1.85,3.65,3.65,0,0,0,2.19.59c10.45.73,19.3,7.73,29.22,11.11,3.1,1.05,6.31,1.75,9.46,2.66a73.83,73.83,0,0,1,22.25,10.76,12.5,12.5,0,0,1,4.05,4.07q-15-5.37-29.61-12c-4.32-2-8.78-4-13.52-4.07-2.6,0-5.18.57-7.77.53-5.33-.07-10.23-2.75-15.33-4.28a7.52,7.52,0,0,0-2.73-.44,10.68,10.68,0,0,0-1.84.36c-2.85.72-6,.9-8.58-.59a6.25,6.25,0,0,1-2.89-4c-.37-1.84.83-3.22.67-5-.12-1.35-1-2.37-.63-3.79A6.67,6.67,0,0,1,101.67,85.66Z" transform="translate(-15.69 -2.83)" fill="url(#linear-gradient-28)"/><path d="M163.16,82a1.08,1.08,0,0,1-.69.11,29.69,29.69,0,0,0-11.68,1.51c-1.57.53-3.11,1.2-4.74,1.59a27.85,27.85,0,0,1-5.91.55c-6.93.18-14.14.48-20.61,3.24-3.16,1.35-4.87,3.58-7.64,5.38a36.56,36.56,0,0,1-9.48,3.89,9.83,9.83,0,0,1-3,.57,5.73,5.73,0,0,1-4.34-2.5,21.52,21.52,0,0,1-.25-5.88,8.57,8.57,0,0,1,3.39-6.09c1.84-1.22,4.15-1.38,6.31-1.85,3.63-.8,7-2.5,10.43-3.86a74.37,74.37,0,0,1,20.58-4.44c3.69-.33,7.39-.47,11.09-.55,3.27-.06,6.78.56,9.64-1.16a14,14,0,0,1,6.45,6.2,13,13,0,0,1,.64,2.23C163.45,81.3,163.47,81.77,163.16,82Z" transform="translate(-15.69 -2.83)" fill="url(#linear-gradient-29)"/><path d="M118.31,178.3a21.81,21.81,0,0,0,4.73,4.41l13.11,10c2.09,1.59,4.29,3.23,6.89,3.61,1.89.27,3.82-.16,5.74-.09A27.12,27.12,0,0,1,156,198a56.4,56.4,0,0,0,17,2.67l-2.08.24c.79-.63,1.19,1.08,1.78,1.9a2.72,2.72,0,0,0,1.44.81l16.28,5.08a5.88,5.88,0,0,0,2.61.39,9.28,9.28,0,0,0,3.07-1.59c6.05-3.55,13.57,2,20.56,1.29a44.77,44.77,0,0,0,5.91-1.37c7.37-1.73,15,.1,22.56.95s15.94.41,21.46-4.78c-4.09,6.65-12.17,9.56-19.77,11.3-26.1,5.95-53.37,3.5-79.79-.78-6.77-1.09-13.56-2.32-20-4.77-11.17-4.28-20.65-12.09-31.53-17.09a9.78,9.78,0,0,1-3.8-2.47,8,8,0,0,1-1.31-3c-1.22-4.52-4.61-26.62,1-28.52,4.46-1.53,4.34,4.17,4.34,6.64C115.66,169.43,115.55,174.43,118.31,178.3Z" transform="translate(-15.69 -2.83)" fill="url(#linear-gradient-30)"/><path d="M155.6,90.86a6.57,6.57,0,0,0-8.26,3.64,1.4,1.4,0,0,0-.1,1.14,1.46,1.46,0,0,0,.48.51A21.74,21.74,0,0,0,151,98.24a10.15,10.15,0,0,1,2.51-1.74,6.06,6.06,0,0,0-.73-1.86c.63-.14,1.43-.2,1.75.36a1.63,1.63,0,0,1,.17.62,3.85,3.85,0,0,0,2.62,2.92l2.56-2.3-3.68-2.85c.93-.69,2.25.31,3.39.09a.41.41,0,0,0,.28-.15.52.52,0,0,0,0-.35,2.5,2.5,0,0,0-1.07-1.88,2.41,2.41,0,0,0-1.13-.15l-3.83.09" transform="translate(-15.69 -2.83)" fill="url(#linear-gradient-31)"/><path d="M156.13,89.28a6.58,6.58,0,0,0-8.27,3.65,1.41,1.41,0,0,0-.1,1.13,1.38,1.38,0,0,0,.48.51,22,22,0,0,0,3.31,2.1,10.54,10.54,0,0,1,2.51-1.74,5.85,5.85,0,0,0-.72-1.86c.62-.14,1.43-.2,1.75.35a1.91,1.91,0,0,1,.17.62A3.85,3.85,0,0,0,157.88,97l2.56-2.29-3.68-2.86c.93-.69,2.25.31,3.39.09a.43.43,0,0,0,.28-.15.44.44,0,0,0,0-.34,1.87,1.87,0,0,0-2.2-2l-3.83.09" transform="translate(-15.69 -2.83)" fill="#ff4500"/><path d="M168.43,100.49a8.21,8.21,0,0,0-2.46,2c-1.31,1.42-2.57,3.1-2.59,5a2.57,2.57,0,0,0,.32,1.39,3.48,3.48,0,0,0,2.45,1.3c1.11.23,2.24.4,3.38.52a6.18,6.18,0,0,0,3.08-.27c1.88-.84,2.56-3.32,2-5.3C173.89,102.62,171.43,99.08,168.43,100.49Z" transform="translate(-15.69 -2.83)" fill="url(#linear-gradient-32)"/><path d="M168.43,98.86a8.18,8.18,0,0,0-2.46,2c-1.31,1.43-2.57,3.11-2.59,5a2.57,2.57,0,0,0,.32,1.39,3.52,3.52,0,0,0,2.45,1.3,31.65,31.65,0,0,0,3.38.51,6,6,0,0,0,3.08-.27c1.88-.83,2.56-3.31,2-5.29C173.89,101,171.43,97.45,168.43,98.86Z" transform="translate(-15.69 -2.83)" fill="#ff4500"/><path d="M132.88,89.54a5,5,0,0,0-1.88.12,4.79,4.79,0,0,0-3,1.55,1.53,1.53,0,0,0-.32.78,2.06,2.06,0,0,0,.74,1.47,17.52,17.52,0,0,0,1.45,1.41,3.58,3.58,0,0,0,1.59.93,2.67,2.67,0,0,0,2.79-1.87C134.79,92.45,134.82,89.89,132.88,89.54Z" transform="translate(-15.69 -2.83)" fill="url(#linear-gradient-33)"/><path d="M133.44,88.75a4.92,4.92,0,0,0-1.87.12,4.74,4.74,0,0,0-3,1.55,1.55,1.55,0,0,0-.33.78,2.06,2.06,0,0,0,.74,1.47,17.64,17.64,0,0,0,1.46,1.41A3.5,3.5,0,0,0,132,95a2.66,2.66,0,0,0,2.79-1.87C135.35,91.66,135.38,89.1,133.44,88.75Z" transform="translate(-15.69 -2.83)" fill="#ff4500"/><path d="M141.79,91.73a2.12,2.12,0,0,0-.83,0,2.2,2.2,0,0,0-1.32.68.81.81,0,0,0-.14.35.91.91,0,0,0,.32.65c.21.22.42.43.65.63a1.61,1.61,0,0,0,.7.41,1.18,1.18,0,0,0,1.23-.83C142.63,93,142.65,91.88,141.79,91.73Z" transform="translate(-15.69 -2.83)" fill="url(#linear-gradient-34)"/><path d="M142,91.38a2.78,2.78,0,0,0-2.15.74.57.57,0,0,0-.14.34.91.91,0,0,0,.32.65c.21.22.42.43.65.63a1.63,1.63,0,0,0,.69.41,1.19,1.19,0,0,0,1.24-.83C142.88,92.66,142.89,91.53,142,91.38Z" transform="translate(-15.69 -2.83)" fill="#ff4500"/><path d="M144.26,97a3.89,3.89,0,0,0-1.44.1,3.65,3.65,0,0,0-2.29,1.18,1.1,1.1,0,0,0-.24.6,1.56,1.56,0,0,0,.56,1.12c.35.38.73.74,1.11,1.08a2.77,2.77,0,0,0,1.21.71,2,2,0,0,0,2.14-1.43C145.72,99.22,145.74,97.27,144.26,97Z" transform="translate(-15.69 -2.83)" fill="url(#linear-gradient-35)"/><path d="M144.69,96.4a3.68,3.68,0,0,0-1.44.09A3.65,3.65,0,0,0,141,97.67a1.13,1.13,0,0,0-.24.6,1.6,1.6,0,0,0,.56,1.13c.35.38.73.74,1.11,1.08a2.87,2.87,0,0,0,1.21.71,2,2,0,0,0,2.14-1.43C146.15,98.62,146.17,96.66,144.69,96.4Z" transform="translate(-15.69 -2.83)" fill="#ff4500"/><path d="M161.07,83.57a3.68,3.68,0,0,0-1.44.09,3.65,3.65,0,0,0-2.29,1.18,1.13,1.13,0,0,0-.24.6,1.64,1.64,0,0,0,.56,1.13c.35.38.73.74,1.11,1.08a2.87,2.87,0,0,0,1.21.71,2,2,0,0,0,2.14-1.43C162.53,85.79,162.55,83.83,161.07,83.57Z" transform="translate(-15.69 -2.83)" fill="url(#linear-gradient-36)"/><path d="M161.5,83a3.89,3.89,0,0,0-1.44.1,3.65,3.65,0,0,0-2.29,1.18,1.13,1.13,0,0,0-.24.6,1.6,1.6,0,0,0,.56,1.12c.35.38.73.74,1.11,1.08a2.77,2.77,0,0,0,1.21.71,2,2,0,0,0,2.14-1.43C163,85.19,163,83.23,161.5,83Z" transform="translate(-15.69 -2.83)" fill="#ff4500"/><path d="M117.41,86.84c1.86-.73,2.84-2.81,4.57-3.8,2.37-1.36,5.34-.36,8.08-.44,4.6-.14,8.59-3.42,13.16-4,2.53-.31,5.08.24,7.61.46s5.28.08,7.35-1.41a9.84,9.84,0,0,1,3.68,3.54c-9.3,3-18.76,6-28.53,6.37-3.16.1-6.37-.08-9.42.77a17.35,17.35,0,0,0-7,4.07c-1.1,1-2.48,2.24-3.88,1.71s-3.11-4.2-2.62-5.55C111.24,86.13,115.52,87.59,117.41,86.84Z" transform="translate(-15.69 -2.83)" fill="url(#linear-gradient-37)"/><path d="M143.14,119.28a18.26,18.26,0,0,0-1.26,3.27,14.07,14.07,0,0,0-.24,2.52l-.09,2.61c0,.54,0,1.2.51,1.45s1.28-.32,1.62-.92c1.43-2.49,1.74-5.51,3.2-8,.62-1,1.41-2,2.09-3,.45-.67.85-1.38,1.25-2.09l.79-1.39.24,2.07a.63.63,0,0,0,.18.45c.22.2.56,0,.8-.15q1.32-.94,2.58-2c.61.37.61,1.23.53,1.94l-.49,4.33a4.14,4.14,0,0,0,1.46-3,6.79,6.79,0,0,1,1-3.25c-3-1.34-5.93-2.93-9-4-.87-.32-2-.54-2.65.31s-.61,2.81-.88,3.94A27,27,0,0,1,143.14,119.28Z" transform="translate(-15.69 -2.83)" fill="#ff4500" opacity="0.18" style="isolation:isolate"/><path d="M138.27,144.23c1.73-4.31,3-9,2.29-13.57-1.83,2.11-2.17,5.08-3,7.73-2.19,6.72-9.09,12.49-9.27,19.81,2-1.22,4.75-1.44,5.77-3.7C135.54,151.16,136.91,147.65,138.27,144.23Z" transform="translate(-15.69 -2.83)" fill="url(#linear-gradient-38)"/><path d="M191.89,143.52c0,4-.26,8.15.85,12,.72,2.51,2,5.12,1.18,7.59-.45.48-1.13-.31-1.31-.95-2.21-8-4.06-16.23-4.25-24.55-.05-2.09.09-4.41,1.55-5.91,1.92,1,1.55,3.22,1.71,5.23Q191.89,140.23,191.89,143.52Z" transform="translate(-15.69 -2.83)" fill="#fff" opacity="0.79" style="isolation:isolate"/><path d="M128,97.66a6.52,6.52,0,0,1-.91,4.3,27.72,27.72,0,0,0-2,4,4.47,4.47,0,0,0,.52,4.26,22.42,22.42,0,0,1,6.12-1.73,6.58,6.58,0,0,0,4.2,2,16.15,16.15,0,0,0,4.75-.28,4,4,0,0,1,1.29-.08,4.23,4.23,0,0,1,1.39.58,17.76,17.76,0,0,0,4.88,1.78l-.9-.45a9.62,9.62,0,0,0,3.62,1.65c1.06.24,2.16.29,3.2.6,1.3.39,2.46,1.17,3.77,1.53a17.35,17.35,0,0,1,3.32.83,16.09,16.09,0,0,1,2.33,1.82,2.75,2.75,0,0,0,2.75.58c-.47-2.1-2.43-3.51-4.33-4.52-.55-.3-1.17-.65-1.34-1.25a2.7,2.7,0,0,1,0-1.13,5.35,5.35,0,0,0-.69-3.41,2.17,2.17,0,0,0-.66-.75,3.07,3.07,0,0,0-1.9-.24c-4.66.35-9.27-1.21-13.47-3.25s-8.17-4.58-12.46-6.42a4,4,0,0,0-2.38-.44Z" transform="translate(-15.69 -2.83)" fill="url(#linear-gradient-39)"/></svg>